<svg
  width="60"
  height="60"
  viewBox="0 0 60 60"
  fill="none"
  xmlns="http://www.w3.org/2000/svg"
>
  <circle
    cx="30"
    cy="30"
    r="30"
    fill="#C63031"
  />
  <path
    d="M34.4244 29.1129L27.3494 22.0504C27.2332 21.9333 27.095 21.8403 26.9426 21.7768C26.7903 21.7133 26.6269 21.6807 26.4619 21.6807C26.2969 21.6807 26.1335 21.7133 25.9812 21.7768C25.8289 21.8403 25.6906 21.9333 25.5744 22.0504C25.3416 22.2846 25.2109 22.6014 25.2109 22.9317C25.2109 23.2619 25.3416 23.5787 25.5744 23.8129L31.7619 30.0629L25.5744 36.2504C25.3416 36.4846 25.2109 36.8014 25.2109 37.1317C25.2109 37.4619 25.3416 37.7787 25.5744 38.0129C25.6902 38.131 25.8283 38.225 25.9806 38.2894C26.1329 38.3537 26.2965 38.3872 26.4619 38.3879C26.6273 38.3872 26.7909 38.3537 26.9433 38.2894C27.0956 38.225 27.2337 38.131 27.3494 38.0129L34.4244 30.9504C34.5513 30.8334 34.6526 30.6913 34.7218 30.5332C34.7911 30.375 34.8268 30.2043 34.8268 30.0317C34.8268 29.859 34.7911 29.6883 34.7218 29.5302C34.6526 29.372 34.5513 29.23 34.4244 29.1129Z"
    fill="white"
  />
</svg>
